<svg id="Layer_1" data-name="Layer 1" xmlns="http://www.w3.org/2000/svg" viewBox="0 0 841.89 595.28"><defs><style>.cls-1{fill:#010101;}.cls-2{fill:none;stroke:#010101;stroke-miterlimit:10;stroke-width:9px;}</style></defs><title>Artboard 1</title><path class="cls-1" d="M462.44,78.65l-1.61,145.62-.23,20.6,7.68-3.18-46.49-48.37L347.58,116.1,330.39,98.22c-2.72-2.83-7.68-.67-7.68,3.18V405.34c0,13.89-1,28.22,0,42.08,0,.19,0,.4,0,.59,0,5.79,9,5.8,9,0V115.64c0-4.27.79-9.43,0-13.65a2.91,2.91,0,0,1,0-.59L324,104.58,370.51,153l74.22,77.22,17.19,17.88c2.74,2.86,7.63.65,7.68-3.18l1.61-145.62.23-20.6c.06-5.79-8.94-5.79-9,0Z"/><path class="cls-1" d="M413.26,551.56V389.71l-7.68,3.18,46.47,46.95,73.67,74.43,17,17.19a4.55,4.55,0,0,0,7.68-3.18V218.42c0-14.18,1-28.8,0-42.95,0-.21,0-.42,0-.63,0-5.79-9-5.8-9,0V513.9c0,4.32-.79,9.49,0,13.76a3.21,3.21,0,0,1,0,.62l7.68-3.18-46.46-47L429,403.71l-17-17.19a4.55,4.55,0,0,0-7.68,3.19V551.56c0,5.79,9,5.8,9,0Z"/><circle class="cls-2" cx="436.91" cy="314.54" r="239.86"/></svg>